<svg width="62" height="57" viewBox="0 0 62 57" fill="none" xmlns="http://www.w3.org/2000/svg">
<path d="M31 35.6053C35.7739 35.6053 40.3523 33.8086 43.7279 30.6107C47.1036 27.4127 49 23.0753 49 18.5526C49 14.03 47.1036 9.69259 43.7279 6.4946C40.3523 3.29661 35.7739 1.5 31 1.5C26.2261 1.5 21.6477 3.29661 18.2721 6.4946C14.8964 9.69259 13 14.03 13 18.5526C13 23.0753 14.8964 27.4127 18.2721 30.6107C21.6477 33.8086 26.2261 35.6053 31 35.6053V35.6053Z" stroke="#682626" stroke-width="1.5" stroke-linecap="round" stroke-linejoin="round"/>
<path d="M43 55.5C45.3638 55.5 47.7044 55.0589 49.8883 54.2019C52.0722 53.3449 54.0565 52.0889 55.7279 50.5054C57.3994 48.9219 58.7252 47.042 59.6298 44.9731C60.5344 42.9042 61 40.6867 61 38.4473C61 36.208 60.5344 33.9905 59.6298 31.9216C58.7252 29.8527 57.3994 27.9728 55.7279 26.3893C54.0565 24.8058 52.0722 23.5497 49.8883 22.6928C47.7044 21.8358 45.3638 21.3947 43 21.3947C38.2261 21.3947 33.6477 23.1913 30.2721 26.3893C26.8964 29.5873 25 33.9247 25 38.4473C25 42.97 26.8964 47.3074 30.2721 50.5054C33.6477 53.7034 38.2261 55.5 43 55.5V55.5Z" stroke="#682626" stroke-width="1.5" stroke-linecap="round" stroke-linejoin="round"/>
<path d="M19 55.5C21.3638 55.5 23.7044 55.0589 25.8883 54.2019C28.0722 53.3449 30.0565 52.0889 31.7279 50.5054C33.3994 48.9219 34.7252 47.042 35.6298 44.9731C36.5344 42.9042 37 40.6867 37 38.4473C37 36.208 36.5344 33.9905 35.6298 31.9216C34.7252 29.8527 33.3994 27.9728 31.7279 26.3893C30.0565 24.8058 28.0722 23.5497 25.8883 22.6928C23.7044 21.8358 21.3638 21.3947 19 21.3947C14.2261 21.3947 9.64773 23.1913 6.27208 26.3893C2.89642 29.5873 1 33.9247 1 38.4473C1 42.97 2.89642 47.3074 6.27208 50.5054C9.64773 53.7034 14.2261 55.5 19 55.5V55.5Z" stroke="#682626" stroke-width="1.5" stroke-linecap="round" stroke-linejoin="round"/>
</svg>
